<svg width="127" height="70" viewBox="0 0 127 70" fill="none" xmlns="http://www.w3.org/2000/svg">
<path d="M31.639 1.41652L13.2587 68.6919H0.239258L18.6196 1.41652H31.639Z" fill="#191919"/>
<path d="M66.7843 70C70.7412 70 74.4109 69.3148 77.7934 67.9444C81.2397 66.5739 84.1435 64.5494 86.5049 61.8709C88.8024 59.1923 90.3341 56.4515 91.1 53.6483C91.9297 50.7829 92.3445 47.3257 92.3445 43.2767V26.7382C92.3445 22.5646 91.9616 19.1074 91.1957 16.3666C90.4299 13.5635 88.8663 10.8226 86.5049 8.14406C84.0797 5.40321 81.112 3.34757 77.6019 1.97715C74.1556 0.544434 70.5497 -0.109632 66.7843 0.0149496C62.8912 -0.0473414 59.1896 0.637871 55.6795 2.07059C52.1694 3.5033 49.2974 5.52779 47.0637 8.14406C44.7023 11.0095 43.1387 13.8126 42.3729 16.5535C41.607 19.232 41.2241 22.6269 41.2241 26.7382V43.2767C41.2241 47.388 41.607 50.8141 42.3729 53.5549C43.2026 56.2335 44.7662 59.0055 47.0637 61.8709C49.4251 64.5494 52.3289 66.5739 55.7752 67.9444C59.2854 69.3148 62.9551 70 66.7843 70ZM66.7843 11.975C68.9542 11.9127 71.0284 12.4733 73.0068 13.6569C74.9853 14.7781 76.517 16.2732 77.6019 18.1419C78.3039 19.5746 78.7188 20.7893 78.8464 21.786C78.9741 22.7827 79.0379 24.4334 79.0379 26.7382V43.2767C79.0379 45.7684 78.9421 47.606 78.7507 48.7896C78.5592 49.9731 78.0487 51.1878 77.219 52.4337C76.134 54.1778 74.6342 55.5794 72.7196 56.6384C70.8688 57.635 68.8904 58.1022 66.7843 58.0399C64.742 58.1022 62.7955 57.635 60.9447 56.6384C59.0939 55.5794 57.5941 54.209 56.4453 52.5271C55.5519 51.219 55.0094 49.9108 54.8179 48.6027C54.6265 47.2946 54.5307 45.5192 54.5307 43.2767V26.7382C54.5307 24.6203 54.6265 22.9384 54.8179 21.6926C55.0094 20.3844 55.4561 19.1697 56.1582 18.0485C57.2431 16.1797 58.7429 14.6847 60.6575 13.5635C62.636 12.4422 64.6782 11.9127 66.7843 11.975Z" fill="#191919"/>
<path d="M126.239 1.41652V68.6919H112.933V15.2453L100.009 23.0007V8.985L112.933 1.41652H126.239Z" fill="#191919"/>
</svg>
