<svg width="126" height="60" viewBox="0 0 126 60" fill="none" xmlns="http://www.w3.org/2000/svg">
<path d="M26.5061 1.21416L10.9903 58.8787H0L15.5158 1.21416H26.5061Z" fill="#191919"/>
<path d="M56.174 60C59.5142 60 62.6119 59.4127 65.4673 58.238C68.3765 57.0634 70.8278 55.3281 72.8211 53.0322C74.7606 50.7363 76.0536 48.387 76.7 45.9843C77.4004 43.5282 77.7506 40.5649 77.7506 37.0943V22.9185C77.7506 19.3411 77.4273 16.3778 76.7809 14.0285C76.1344 11.6258 74.8144 9.27652 72.8211 6.98062C70.7739 4.63132 68.2687 2.86935 65.3056 1.6947C62.3964 0.466658 59.3525 -0.0939707 56.174 0.012814C52.8876 -0.0405783 49.7629 0.546746 46.7999 1.77479C43.8368 3.00283 41.4124 4.73811 39.5268 6.98062C37.5335 9.4367 36.2136 11.8394 35.5671 14.1887C34.9206 16.4846 34.5973 19.3945 34.5973 22.9185V37.0943C34.5973 40.6183 34.9206 43.5549 35.5671 45.9042C36.2674 48.2001 37.5874 50.5761 39.5268 53.0322C41.5202 55.3281 43.9715 57.0634 46.8807 58.238C49.8438 59.4127 52.9415 60 56.174 60ZM56.174 10.2643C58.0057 10.2109 59.7566 10.6914 61.4267 11.7059C63.0968 12.667 64.3898 13.9484 65.3056 15.5502C65.8983 16.7783 66.2485 17.8194 66.3562 18.6737C66.4639 19.528 66.5178 20.9429 66.5178 22.9185V37.0943C66.5178 39.2301 66.437 40.8052 66.2754 41.8196C66.1138 42.8341 65.6828 43.8753 64.9824 44.9431C64.0665 46.4381 62.8005 47.6395 61.1843 48.5472C59.6219 49.4015 57.9518 49.8019 56.174 49.7485C54.45 49.8019 52.8068 49.4015 51.2445 48.5472C49.6821 47.6395 48.4161 46.4648 47.4463 45.0232C46.6921 43.902 46.2342 42.7807 46.0726 41.6595C45.9109 40.5382 45.8301 39.0165 45.8301 37.0943V22.9185C45.8301 21.1031 45.9109 19.6615 46.0726 18.5936C46.2342 17.4724 46.6113 16.4312 47.2039 15.4701C48.1198 13.8683 49.3858 12.5869 51.002 11.6258C52.6721 10.6647 54.3961 10.2109 56.174 10.2643Z" fill="#191919"/>
<path d="M85.2711 19.3144C85.1633 16.538 85.7021 13.8416 86.8873 11.2254C88.0726 8.60911 89.7157 6.3933 91.8168 4.57793C95.3186 1.53452 100.087 0.012814 106.12 0.012814C109.245 0.012814 112.127 0.573442 114.767 1.6947C117.407 2.76256 119.616 4.41775 121.394 6.66026C122.902 8.36884 124.034 10.3444 124.788 12.5869C125.596 14.8294 126 17.152 126 19.5547C126 22.171 125.596 24.4669 124.788 26.4424C124.034 28.3646 122.929 30.1265 121.475 31.7283C120.02 33.3301 117.973 35.279 115.333 37.5749L102.484 48.5472H124.788V58.7987H85.0287V48.5472L109.676 27.884C113.016 25.0542 114.686 22.2244 114.686 19.3945C114.686 17.152 114.013 15.2032 112.666 13.548C110.888 11.3589 108.491 10.2643 105.474 10.2643C103.157 10.2643 101.137 11.0652 99.4131 12.667C98.4972 13.5213 97.7699 14.5357 97.2312 15.7104C96.7463 16.885 96.5308 18.0864 96.5847 19.3144H85.2711Z" fill="#191919"/>
</svg>
