<svg width="125" height="60" viewBox="0 0 125 60" fill="none" xmlns="http://www.w3.org/2000/svg">
<path d="M26.2751 1.21416L10.8945 58.8787H0L15.3805 1.21416H26.2751Z" fill="#191919"/>
<path d="M55.6843 60C58.9954 60 62.0662 59.4127 64.8966 58.238C67.7805 57.0634 70.2104 55.3281 72.1863 53.0322C74.1089 50.7363 75.3906 48.387 76.0315 45.9843C76.7257 43.5282 77.0729 40.5649 77.0729 37.0943V22.9185C77.0729 19.3411 76.7524 16.3778 76.1116 14.0285C75.4707 11.6258 74.1623 9.27652 72.1863 6.98062C70.157 4.63132 67.6737 2.86935 64.7364 1.6947C61.8525 0.466658 58.8352 -0.0939707 55.6843 0.012814C52.4266 -0.0405783 49.3292 0.546746 46.3919 1.77479C43.4547 3.00283 41.0515 4.73811 39.1823 6.98062C37.2063 9.4367 35.8979 11.8394 35.2571 14.1887C34.6162 16.4846 34.2958 19.3945 34.2958 22.9185V37.0943C34.2958 40.6183 34.6162 43.5549 35.2571 45.9042C35.9513 48.2001 37.2597 50.5761 39.1823 53.0322C41.1583 55.3281 43.5882 57.0634 46.472 58.238C49.4093 59.4127 52.48 60 55.6843 60ZM55.6843 10.2643C57.5001 10.2109 59.2357 10.6914 60.8913 11.7059C62.5468 12.667 63.8285 13.9484 64.7364 15.5502C65.3238 16.7783 65.671 17.8194 65.7778 18.6737C65.8846 19.528 65.938 20.9429 65.938 22.9185V37.0943C65.938 39.2301 65.8579 40.8052 65.6977 41.8196C65.5375 42.8341 65.1102 43.8753 64.416 44.9431C63.5081 46.4381 62.2531 47.6395 60.6509 48.5472C59.1022 49.4015 57.4467 49.8019 55.6843 49.7485C53.9754 49.8019 52.3465 49.4015 50.7978 48.5472C49.2491 47.6395 47.9941 46.4648 47.0328 45.0232C46.2851 43.902 45.8312 42.7807 45.671 41.6595C45.5107 40.5382 45.4306 39.0165 45.4306 37.0943V22.9185C45.4306 21.1031 45.5107 19.6615 45.671 18.5936C45.8312 17.4724 46.205 16.4312 46.7924 15.4701C47.7003 13.8683 48.9553 12.5869 50.5575 11.6258C52.213 10.6647 53.922 10.2109 55.6843 10.2643Z" fill="#191919"/>
<path d="M121.217 29.4057C123.353 32.8229 124.421 36.3468 124.421 39.9776C124.421 42.7006 123.86 45.3703 122.739 47.9865C121.671 50.6028 120.175 52.8186 118.253 54.634C116.384 56.396 114.221 57.7575 111.764 58.7186C109.308 59.6263 106.824 60.0267 104.314 59.9199C101.804 59.9733 99.3209 59.5462 96.8643 58.6385C94.4077 57.6774 92.2448 56.3159 90.3756 54.5539C87.8122 52.1512 86.0498 49.2413 85.0886 45.8241L95.6627 43.021C96.0899 44.6228 96.8376 45.9576 97.9057 47.0255C98.7601 47.8798 99.7481 48.5472 100.87 49.0277C101.991 49.4549 103.139 49.6684 104.314 49.6684C105.489 49.6684 106.637 49.4549 107.759 49.0277C108.88 48.5472 109.868 47.8798 110.723 47.0255C111.577 46.1712 112.218 45.2101 112.645 44.1422C113.126 43.021 113.366 41.873 113.366 40.6984C113.366 39.4703 113.126 38.2957 112.645 37.1744C112.218 35.9998 111.577 34.9853 110.723 34.131C109.067 32.4758 106.931 31.6482 104.314 31.6482C102.765 31.6482 101.27 32.0754 99.8282 32.9297L94.9417 24.3601L108.88 11.4656H87.3316V1.21416H123.38V11.8661L111.684 22.7583C115.529 23.8795 118.707 26.0954 121.217 29.4057Z" fill="#191919"/>
</svg>
