<svg width="34" height="31" viewBox="0 0 34 31" fill="none" xmlns="http://www.w3.org/2000/svg">
<path fill-rule="evenodd" clip-rule="evenodd" d="M11.2074 2.44032C11.4318 2.21594 11.7361 2.08989 12.0534 2.08989C12.3708 2.08989 12.6751 2.21594 12.8995 2.44032C13.1238 2.6647 13.2499 2.96903 13.2499 3.28635V11.7178L13.2498 11.7469V14.6672C13.2498 15.2443 13.7176 15.7122 14.2947 15.7122C14.8718 15.7122 15.3396 15.2443 15.3396 14.6672V14.4394L15.3398 14.422V11.7309C15.3418 11.6171 15.3652 11.5046 15.4088 11.3993C15.4544 11.2891 15.5214 11.189 15.6057 11.1046C15.6901 11.0203 15.7902 10.9533 15.9004 10.9077C16.0106 10.862 16.1288 10.8385 16.248 10.8385C16.3673 10.8385 16.4855 10.862 16.5957 10.9077C16.7059 10.9533 16.806 11.0203 16.8904 11.1046C16.9747 11.189 17.0417 11.2891 17.0873 11.3993C17.133 11.5095 17.1565 11.6277 17.1565 11.7469V12.8243C17.1454 12.9288 17.1398 13.0342 17.1398 13.1403V15.1257C17.1398 15.7028 17.6076 16.1706 18.1847 16.1706C18.7522 16.1706 19.214 15.7183 19.2293 15.1545C19.2405 15.0932 19.2463 15.0299 19.2463 14.9654V12.967C19.2806 12.7905 19.3668 12.6268 19.4957 12.4979C19.6661 12.3276 19.8971 12.2319 20.1381 12.2319C20.379 12.2319 20.61 12.3276 20.7804 12.4979C20.9508 12.6683 21.0465 12.8993 21.0465 13.1403V15.3667C21.0465 15.4379 21.0536 15.5074 21.0672 15.5746C21.0538 15.6938 21.0468 15.8138 21.0465 15.9341L21.0465 15.937V16.0137C21.0465 16.5908 21.5143 17.0586 22.0914 17.0586C22.6685 17.0586 23.1364 16.5908 23.1364 16.0137V15.9387C23.137 15.7804 23.1687 15.6237 23.2297 15.4776C23.2909 15.3311 23.3803 15.1981 23.4929 15.0861C23.6055 14.9742 23.739 14.8856 23.8859 14.8253C24.0327 14.7649 24.19 14.7342 24.3488 14.7347C24.672 14.7356 24.9817 14.8647 25.2099 15.0937C25.4381 15.3226 25.5662 15.6326 25.5662 15.9558V24.6358C25.5662 26.313 24.0739 28.4255 21.679 28.4255H13.6573C12.5779 28.4255 11.1936 27.5361 9.98838 26.0432C8.79985 24.571 8.08989 22.8834 8.08989 21.8075C8.08989 20.5055 8.4057 19.6284 8.94176 19.0389C9.12903 19.32 9.4489 19.5053 9.81203 19.5053C10.3891 19.5053 10.857 19.0374 10.857 18.4603V3.28635C10.857 2.96903 10.983 2.6647 11.2074 2.44032ZM8.76709 16.7125V3.28635C8.76709 2.41475 9.11333 1.57886 9.72964 0.962549C10.3459 0.34624 11.1818 0 12.0534 0C12.925 0 13.7609 0.34624 14.3772 0.962549C14.9935 1.57886 15.3398 2.41475 15.3398 3.28635V8.88953C15.633 8.79633 15.9393 8.74866 16.248 8.74866C16.6418 8.74866 17.0317 8.82621 17.3954 8.97689C17.7592 9.12757 18.0897 9.34842 18.3682 9.62684C18.5942 9.8529 18.7823 10.1133 18.9257 10.398C19.304 10.2308 19.7165 10.142 20.1381 10.142C20.9333 10.142 21.6959 10.4579 22.2582 11.0201C22.7601 11.5221 23.0657 12.1836 23.1255 12.8855L24.3552 12.6448C25.2316 12.6475 26.0712 12.9975 26.6899 13.6182C27.3087 14.2388 27.6561 15.0795 27.6561 15.9559V24.6358C27.6561 27.2639 25.4214 30.5154 21.679 30.5154H13.6573C11.6013 30.5154 9.67941 28.9875 8.36226 27.356C7.02848 25.7038 6 23.56 6 21.8075C6 19.6928 6.68405 17.9601 8.24907 16.8921C8.40855 16.7833 8.58744 16.7246 8.76709 16.7125Z" fill="#ffffff"/>
</svg>
