<svg width="16" height="9" viewBox="0 0 16 9" fill="none" xmlns="http://www.w3.org/2000/svg">
<path fill-rule="evenodd" clip-rule="evenodd" d="M3.82909 0.268183C4.25809 -0.117839 4.91879 -0.0829988 5.30482 0.345999C5.69084 0.774998 5.656 1.4357 5.227 1.82172L3.91776 3H15.3182C15.6947 3 16 3.44772 16 4C16 4.55228 15.6947 5 15.3182 5H3.51811L4.06583 5.493L5.227 6.53784C5.656 6.92387 5.69084 7.58457 5.30482 8.01357C4.91879 8.44257 4.25809 8.47741 3.82909 8.09138L0.345832 4.95645C0.125671 4.75828 -4.31564e-05 4.47599 -4.31564e-05 4.17978C-4.31564e-05 3.88357 0.125671 3.60128 0.345832 3.40312L3.82909 0.268183Z" fill="#ffffff"/>
</svg>
